# This file uses centimeters as units for non-parametric coordinates.

mtllib Platform_4.mtl
g default
v -293.224792 -1.000000 181.185730
v -293.224792 -28.640522 181.185730
v 293.224792 -1.000000 181.185730
v 293.224792 -28.640522 181.185730
v -293.224792 -1.000000 -4167.271484
v -293.224792 -28.640522 -4167.271484
v 293.224792 -1.000000 -4167.271484
v 293.224792 -28.640522 -4167.271484
vt 0.078504 0.000001
vt 0.622615 -0.000001
vt 0.622628 3.999999
vt 0.078518 4.000001
vt 0.029046 3.999902
vt 0.027101 -0.000093
vt 0.052746 -0.000105
vt 0.054691 3.999889
vt 0.029031 0.000110
vt 0.054676 0.000106
vt 0.055318 4.000113
vt 0.029673 4.000116
vn 0.000000 1.000000 0.000000
vn 0.000000 1.000000 0.000000
vn 0.000000 1.000000 0.000000
vn 0.000000 1.000000 0.000000
vn -1.000000 0.000000 0.000000
vn -1.000000 0.000000 0.000000
vn -1.000000 0.000000 0.000000
vn -1.000000 0.000000 0.000000
vn 1.000000 0.000000 0.000000
vn 1.000000 0.000000 0.000000
vn 1.000000 0.000000 0.000000
vn 1.000000 0.000000 0.000000
s off
g Platform_4_
usemtl Platform_4:initialShadingGroup
f 1/1/1 3/2/2 7/3/3 5/4/4
f 6/5/5 2/6/6 1/7/7 5/8/8
f 3/9/9 4/10/10 8/11/11 7/12/12
