# This file uses meters as units for non-parametric coordinates.

mtllib Portal_purple.mtl
g default
v -125.578210 2.003387 64.389069
v 125.578210 2.003387 64.389069
v 125.578210 490.005066 64.389069
v -125.578210 490.005066 64.389069
v -125.578210 2.003387 64.389038
v 125.578210 2.003387 64.389038
v -125.578210 490.005066 64.389038
v 125.578210 490.005066 64.389038
v -125.578210 2.003387 -64.389084
v 125.578210 2.003387 -64.389084
v 125.578210 490.005066 -64.389084
v -125.578210 490.005066 -64.389084
vt 0.631436 0.004272
vt 0.863462 0.004274
vt 0.863457 0.455103
vt 0.631432 0.455101
vt 0.631436 0.004272
vt 0.863462 0.004274
vt 0.863457 0.455103
vt 0.631432 0.455101
vt 0.994838 0.009733
vt 0.994799 0.241758
vt 0.875830 0.241738
vt 0.875870 0.009713
vt 0.750408 0.004269
vt 0.750421 0.455099
vt 0.631452 0.455102
vt 0.631439 0.004273
vt 0.631452 0.455102
vt 0.631439 0.004273
vt 0.750408 0.004269
vt 0.750421 0.455099
vn 0.000000 0.000000 1.000000
vn 0.000000 0.000000 1.000000
vn 0.000000 0.000000 1.000000
vn 0.000000 0.000000 1.000000
vn 0.000000 0.000000 1.000000
vn 0.000000 0.000000 1.000000
vn 0.000000 0.000000 1.000000
vn 0.000000 0.000000 1.000000
vn 0.000000 1.000000 0.000000
vn 0.000000 1.000000 0.000000
vn 0.000000 1.000000 0.000000
vn 0.000000 1.000000 0.000000
vn -1.000000 0.000000 0.000000
vn -1.000000 0.000000 0.000000
vn -1.000000 0.000000 0.000000
vn -1.000000 0.000000 0.000000
vn 1.000000 0.000000 0.000000
vn 1.000000 0.000000 0.000000
vn 1.000000 0.000000 0.000000
vn 1.000000 0.000000 0.000000
s off
g Portal_purple
f 1/1/1 2/2/2 3/3/3 4/4/4
f 9/5/5 10/6/6 11/7/7 12/8/8
f 5/9/9 6/10/10 10/11/11 9/12/12
f 6/13/13 8/14/14 11/15/15 10/16/16
f 7/17/17 5/18/18 9/19/19 12/20/20
