# This file uses meters as units for non-parametric coordinates.

mtllib Green_panel.mtl
g default
v 0.000000 0.582245 1.107907
v -0.766373 0.563843 1.107907
v -0.787514 0.519440 1.107907
v -0.715340 0.582245 1.107907
v 0.715347 0.582245 1.107907
v 0.787506 0.519440 1.107907
v 0.766373 0.563843 1.107907
v -0.773476 -0.215790 1.107907
v -0.735321 -0.247711 1.107907
v -0.787514 -0.171387 1.107907
v 0.735321 -0.247711 1.107907
v 0.773483 -0.215790 1.107907
v 0.787506 -0.171387 1.107907
v 0.000000 -0.582245 1.107907
v 0.051041 -0.570969 1.107907
v -0.051041 -0.570969 1.107907
vt 0.032100 0.605396
vt 0.034069 0.821473
vt 0.028210 0.809165
vt 0.028210 0.617705
vt 0.460836 0.605396
vt 0.458867 0.821473
vt 0.444723 0.826572
vt 0.450261 0.596549
vt 0.246468 0.826572
vt 0.232324 0.506960
vt 0.246468 0.503835
vt 0.260612 0.506960
vt 0.048213 0.826572
vt 0.042675 0.596549
vt 0.464726 0.809165
vt 0.464726 0.617705
vn -0.000000 0.000000 1.000000
vn -0.000000 0.000000 1.000000
vn -0.000003 0.000000 1.000000
vn -0.000003 0.000000 1.000000
vn 0.000001 0.000000 1.000000
vn 0.000001 0.000000 1.000000
vn -0.000000 0.000000 1.000000
vn -0.000000 0.000000 1.000000
vn 0.000000 0.000000 1.000000
vn 0.000000 0.000000 1.000000
vn 0.000000 0.000000 1.000000
vn -0.000000 0.000000 1.000000
vn 0.000000 0.000000 1.000000
vn 0.000000 0.000000 1.000000
vn 0.000005 0.000000 1.000000
vn 0.000005 0.000000 1.000000
s 1
g Green_panel Panel6
usemtl initialShadingGroup
f 8/1/1 2/2/2 3/3/3 10/4/4
f 12/5/5 7/6/6 5/7/7 11/8/8
f 1/9/9 16/10/10 14/11/11
f 1/9/9 14/11/11 15/12/12
f 4/13/13 9/14/14 16/10/10 1/9/9
f 8/1/1 9/14/14 4/13/13 2/2/2
f 11/8/8 5/7/7 1/9/9 15/12/12
f 6/15/15 7/6/6 12/5/5 13/16/16
