# This file uses meters as units for non-parametric coordinates.

mtllib Purple_panel.mtl
g default
v 0.000000 0.582245 1.107907
v -0.766388 0.563843 1.107907
v -0.787506 0.519440 1.107907
v -0.715332 0.582245 1.107907
v 0.715332 0.582245 1.107907
v 0.787506 0.519440 1.107907
v 0.766388 0.563843 1.107907
v -0.773468 -0.215790 1.107907
v -0.735321 -0.247711 1.107907
v -0.787506 -0.171387 1.107907
v 0.735321 -0.247711 1.107907
v 0.773468 -0.215790 1.107907
v 0.787506 -0.171387 1.107907
v 0.000000 -0.582245 1.107907
v 0.051025 -0.570969 1.107907
v -0.051025 -0.570969 1.107907
vt 0.526751 0.108045
vt 0.528720 0.324123
vt 0.522862 0.311814
vt 0.522862 0.120354
vt 0.955487 0.108045
vt 0.953519 0.324123
vt 0.939375 0.329221
vt 0.944913 0.099198
vt 0.741119 0.329221
vt 0.726976 0.009610
vt 0.741119 0.006484
vt 0.755263 0.009610
vt 0.542864 0.329221
vt 0.537326 0.099198
vt 0.959377 0.311814
vt 0.959377 0.120354
vn -0.000000 0.000000 1.000000
vn -0.000000 0.000000 1.000000
vn -0.000003 0.000000 1.000000
vn -0.000003 0.000000 1.000000
vn 0.000001 0.000000 1.000000
vn 0.000001 0.000000 1.000000
vn -0.000000 0.000000 1.000000
vn -0.000000 0.000000 1.000000
vn 0.000000 0.000000 1.000000
vn 0.000000 0.000000 1.000000
vn 0.000000 0.000000 1.000000
vn -0.000000 0.000000 1.000000
vn 0.000000 0.000000 1.000000
vn 0.000000 0.000000 1.000000
vn 0.000005 0.000000 1.000000
vn 0.000005 0.000000 1.000000
s 1
g Purple_panel Panel6
usemtl initialShadingGroup
f 8/1/1 2/2/2 3/3/3 10/4/4
f 12/5/5 7/6/6 5/7/7 11/8/8
f 1/9/9 16/10/10 14/11/11
f 1/9/9 14/11/11 15/12/12
f 4/13/13 9/14/14 16/10/10 1/9/9
f 8/1/1 9/14/14 4/13/13 2/2/2
f 11/8/8 5/7/7 1/9/9 15/12/12
f 6/15/15 7/6/6 12/5/5 13/16/16
