# This file uses meters as units for non-parametric coordinates.

mtllib Portal_Blue.mtl
g default
v -132.485347 2.003387 64.389038
v 132.485347 2.003387 64.389038
v -132.485347 497.144867 64.389038
v 132.485347 497.144867 64.389038
v -132.485347 2.003387 -64.389084
v 132.485347 2.003387 -64.389084
v 132.485347 497.144867 -64.389084
v -132.485347 497.144867 -64.389084
v -132.485347 2.003387 64.389069
v 132.485347 2.003387 64.389069
v 132.485347 497.144867 64.389069
v -132.485347 497.144867 64.389069
vt 0.320411 0.135499
vt 0.536038 0.135501
vt 0.536033 0.554467
vt 0.320407 0.554465
vt 0.771875 0.012060
vt 0.987501 0.012096
vt 0.987483 0.122657
vt 0.771856 0.122620
vt 0.430974 0.135496
vt 0.430986 0.554463
vt 0.320426 0.554466
vt 0.320414 0.135500
vt 0.320426 0.554466
vt 0.320414 0.135500
vt 0.430974 0.135496
vt 0.430986 0.554463
vt 0.320411 0.135499
vt 0.536038 0.135501
vt 0.536033 0.554467
vt 0.320407 0.554465
vn 0.000000 0.000000 1.000000
vn 0.000000 0.000000 1.000000
vn 0.000000 0.000000 1.000000
vn 0.000000 0.000000 1.000000
vn 0.000000 1.000000 0.000000
vn 0.000000 1.000000 0.000000
vn 0.000000 1.000000 0.000000
vn 0.000000 1.000000 0.000000
vn -1.000000 0.000000 0.000000
vn -1.000000 0.000000 0.000000
vn -1.000000 0.000000 0.000000
vn -1.000000 0.000000 0.000000
vn 1.000000 0.000000 0.000000
vn 1.000000 0.000000 0.000000
vn 1.000000 0.000000 0.000000
vn 1.000000 0.000000 0.000000
vn 0.000000 0.000000 1.000000
vn 0.000000 0.000000 1.000000
vn 0.000000 0.000000 1.000000
vn 0.000000 0.000000 1.000000
s off
g Portal_Blue
usemtl blinn1SG
f 5/1/1 6/2/2 7/3/3 8/4/4
f 1/5/5 2/6/6 6/7/7 5/8/8
f 2/9/9 4/10/10 7/11/11 6/12/12
f 3/13/13 1/14/14 5/15/15 8/16/16
f 9/17/17 10/18/18 11/19/19 12/20/20
