# This file uses meters as units for non-parametric coordinates.

mtllib Portal_Dark_Blue.mtl
g default
v -132.485411 2.003387 64.389069
v 132.485411 2.003387 64.389069
v 132.485411 497.144867 64.389069
v -132.485411 497.144867 64.389069
v -132.485411 2.003387 64.389038
v 132.485411 2.003387 64.389038
v -132.485411 497.144867 64.389038
v 132.485411 497.144867 64.389038
v -132.485411 2.003387 -64.389084
v 132.485411 2.003387 -64.389084
v 132.485411 497.144867 -64.389084
v -132.485411 497.144867 -64.389084
vt 0.317046 0.572888
vt 0.532673 0.572890
vt 0.532668 0.991857
vt 0.317042 0.991855
vt 0.317046 0.572888
vt 0.532673 0.572890
vt 0.532668 0.991857
vt 0.317042 0.991855
vt 0.282625 0.048982
vt 0.282589 0.264609
vt 0.172028 0.264590
vt 0.172065 0.048963
vt 0.427609 0.572885
vt 0.427621 0.991852
vt 0.317060 0.991856
vt 0.317048 0.572889
vt 0.317060 0.991856
vt 0.317048 0.572889
vt 0.427609 0.572886
vt 0.427621 0.991852
vn 0.000000 0.000000 1.000000
vn 0.000000 0.000000 1.000000
vn 0.000000 0.000000 1.000000
vn 0.000000 0.000000 1.000000
vn 0.000000 0.000000 1.000000
vn 0.000000 0.000000 1.000000
vn 0.000000 0.000000 1.000000
vn 0.000000 0.000000 1.000000
vn 0.000000 1.000000 0.000000
vn 0.000000 1.000000 0.000000
vn 0.000000 1.000000 0.000000
vn 0.000000 1.000000 0.000000
vn -1.000000 0.000000 0.000000
vn -1.000000 0.000000 0.000000
vn -1.000000 0.000000 0.000000
vn -1.000000 0.000000 0.000000
vn 1.000000 0.000000 0.000000
vn 1.000000 0.000000 0.000000
vn 1.000000 0.000000 0.000000
vn 1.000000 0.000000 0.000000
s off
g Portal_Dark_Blue
usemtl blinn1SG
f 1/1/1 2/2/2 3/3/3 4/4/4
f 9/5/5 10/6/6 11/7/7 12/8/8
f 5/9/9 6/10/10 10/11/11 9/12/12
f 6/13/13 8/14/14 11/15/15 10/16/16
f 7/17/17 5/18/18 9/19/19 12/20/20
