# This file uses meters as units for non-parametric coordinates.

mtllib Portal_Violet.mtl
g default
v -132.485411 2.003387 64.389069
v 132.485411 2.003387 64.389069
v 132.485411 497.144867 64.389069
v -132.485411 497.144867 64.389069
v -132.485411 2.003387 64.389038
v 132.485411 2.003387 64.389038
v -132.485411 497.144867 64.389038
v 132.485411 497.144867 64.389038
v -132.485411 2.003387 -64.389084
v 132.485411 2.003387 -64.389084
v 132.485411 497.144867 -64.389084
v -132.485411 497.144867 -64.389084
vt 0.062106 0.568530
vt 0.277734 0.568532
vt 0.277729 0.987499
vt 0.062103 0.987497
vt 0.062106 0.568530
vt 0.277734 0.568532
vt 0.277729 0.987499
vt 0.062103 0.987497
vt 0.283692 0.296977
vt 0.283655 0.512605
vt 0.173095 0.512585
vt 0.173132 0.296959
vt 0.172670 0.568527
vt 0.172682 0.987494
vt 0.062121 0.987498
vt 0.062109 0.568531
vt 0.062121 0.987498
vt 0.062109 0.568531
vt 0.172670 0.568528
vt 0.172682 0.987494
vn 0.000000 0.000000 1.000000
vn 0.000000 0.000000 1.000000
vn 0.000000 0.000000 1.000000
vn 0.000000 0.000000 1.000000
vn 0.000000 0.000000 1.000000
vn 0.000000 0.000000 1.000000
vn 0.000000 0.000000 1.000000
vn 0.000000 0.000000 1.000000
vn 0.000000 1.000000 0.000000
vn 0.000000 1.000000 0.000000
vn 0.000000 1.000000 0.000000
vn 0.000000 1.000000 0.000000
vn -1.000000 0.000000 0.000000
vn -1.000000 0.000000 0.000000
vn -1.000000 0.000000 0.000000
vn -1.000000 0.000000 0.000000
vn 1.000000 0.000000 0.000000
vn 1.000000 0.000000 0.000000
vn 1.000000 0.000000 0.000000
vn 1.000000 0.000000 0.000000
s off
g Portal_Violet
usemtl blinn1SG
f 1/1/1 2/2/2 3/3/3 4/4/4
f 9/5/5 10/6/6 11/7/7 12/8/8
f 5/9/9 6/10/10 10/11/11 9/12/12
f 6/13/13 8/14/14 11/15/15 10/16/16
f 7/17/17 5/18/18 9/19/19 12/20/20
