# This file uses meters as units for non-parametric coordinates.

mtllib Portal_yerlow.mtl
g default
v -132.485379 2.003387 64.389069
v 132.485379 2.003387 64.389069
v 132.485379 497.144867 64.389069
v -132.485379 497.144867 64.389069
v -132.485379 2.003387 64.389038
v 132.485379 2.003387 64.389038
v -132.485379 497.144867 64.389038
v 132.485379 497.144867 64.389038
v -132.485379 2.003387 -64.389084
v 132.485379 2.003387 -64.389084
v 132.485379 497.144867 -64.389084
v -132.485379 497.144867 -64.389084
vt 0.549078 0.135499
vt 0.764705 0.135501
vt 0.764701 0.554467
vt 0.549074 0.554465
vt 0.549078 0.135499
vt 0.764705 0.135501
vt 0.764701 0.554467
vt 0.549074 0.554465
vt 0.541024 0.010346
vt 0.756650 0.010382
vt 0.756632 0.120943
vt 0.541005 0.120906
vt 0.659642 0.135496
vt 0.659654 0.554463
vt 0.549093 0.554466
vt 0.549081 0.135500
vt 0.549093 0.554466
vt 0.549081 0.135500
vt 0.659642 0.135496
vt 0.659654 0.554463
vn 0.000000 0.000000 1.000000
vn 0.000000 0.000000 1.000000
vn 0.000000 0.000000 1.000000
vn 0.000000 0.000000 1.000000
vn 0.000000 0.000000 1.000000
vn 0.000000 0.000000 1.000000
vn 0.000000 0.000000 1.000000
vn 0.000000 0.000000 1.000000
vn 0.000000 1.000000 0.000000
vn 0.000000 1.000000 0.000000
vn 0.000000 1.000000 0.000000
vn 0.000000 1.000000 0.000000
vn -1.000000 0.000000 0.000000
vn -1.000000 0.000000 0.000000
vn -1.000000 0.000000 0.000000
vn -1.000000 0.000000 0.000000
vn 1.000000 0.000000 0.000000
vn 1.000000 0.000000 0.000000
vn 1.000000 0.000000 0.000000
vn 1.000000 0.000000 0.000000
s off
g Portal_Yelow
usemtl blinn1SG
f 1/1/1 2/2/2 3/3/3 4/4/4
f 9/5/5 10/6/6 11/7/7 12/8/8
f 5/9/9 6/10/10 10/11/11 9/12/12
f 6/13/13 8/14/14 11/15/15 10/16/16
f 7/17/17 5/18/18 9/19/19 12/20/20
